<?xml version="1.0" encoding="UTF-8" standalone="no"?>
<!DOCTYPE svg PUBLIC "-//W3C//DTD SVG 1.1//EN"
 "http://www.w3.org/Graphics/SVG/1.1/DTD/svg11.dtd">
<!-- Generated by graphviz version 2.49.3 (20211023.0002)
 -->
<!-- Pages: 1 -->
<svg width="396pt" height="1313pt"
 viewBox="0.00 0.00 396.00 1313.00" xmlns="http://www.w3.org/2000/svg" xmlns:xlink="http://www.w3.org/1999/xlink">
<g id="graph0" class="graph" transform="scale(1 1) rotate(0) translate(4 1309)">
<!-- &#45;2955635299167129118 -->
<g id="node1" class="node">
<title>&#45;2955635299167129118</title>
<path fill="none" stroke="#c4c7c7" stroke-dasharray="5,2" d="M196,-1305C196,-1305 140,-1305 140,-1305 134,-1305 128,-1299 128,-1293 128,-1293 128,-1281 128,-1281 128,-1275 134,-1269 140,-1269 140,-1269 196,-1269 196,-1269 202,-1269 208,-1275 208,-1281 208,-1281 208,-1293 208,-1293 208,-1299 202,-1305 196,-1305"/>
<text text-anchor="middle" x="168" y="-1290.4" font-family="Times New Roman,serif" font-size="12.00" fill="#c4c7c7"> Distribuição &#160;</text>
<text text-anchor="middle" x="168" y="-1277.4" font-family="Times New Roman,serif" font-size="12.00" fill="#c4c7c7"> não executou</text>
</g>
<!-- 7072029173140770679 -->
<g id="node2" class="node">
<title>7072029173140770679</title>
<path fill="none" stroke="#c4c7c7" stroke-dasharray="5,2" d="M330,-36C330,-36 274,-36 274,-36 268,-36 262,-30 262,-24 262,-24 262,-12 262,-12 262,-6 268,0 274,0 274,0 330,0 330,0 336,0 342,-6 342,-12 342,-12 342,-24 342,-24 342,-30 336,-36 330,-36"/>
<text text-anchor="middle" x="302" y="-21.4" font-family="Times New Roman,serif" font-size="12.00" fill="#c4c7c7"> Definitivo &#160;</text>
<text text-anchor="middle" x="302" y="-8.4" font-family="Times New Roman,serif" font-size="12.00" fill="#c4c7c7"> não executou</text>
</g>
<!-- &#45;6243243875867890169 -->
<g id="node3" class="node">
<title>&#45;6243243875867890169</title>
<g id="a_node3"><a xlink:title="A1">
<path fill="#ffffff" stroke="black" stroke-width="1.71" d="M207,-1251C207,-1251 129,-1251 129,-1251 123,-1251 117,-1245 117,-1239 117,-1239 117,-1223 117,-1223 117,-1217 123,-1211 129,-1211 129,-1211 207,-1211 207,-1211 213,-1211 219,-1217 219,-1223 219,-1223 219,-1239 219,-1239 219,-1245 213,-1251 207,-1251"/>
<text text-anchor="middle" x="168" y="-1234.4" font-family="Times New Roman,serif" font-size="12.00"> A1 &#160;</text>
<text text-anchor="middle" x="168" y="-1221.4" font-family="Times New Roman,serif" font-size="12.00"> 2510 movimentos </text>
</a>
</g>
</g>
<!-- &#45;210481333109200403 -->
<g id="node12" class="node">
<title>&#45;210481333109200403</title>
<g id="a_node12"><a xlink:title="A2">
<path fill="#ffffff" stroke="black" stroke-width="1.71" d="M207,-1162C207,-1162 129,-1162 129,-1162 123,-1162 117,-1156 117,-1150 117,-1150 117,-1134 117,-1134 117,-1128 123,-1122 129,-1122 129,-1122 207,-1122 207,-1122 213,-1122 219,-1128 219,-1134 219,-1134 219,-1150 219,-1150 219,-1156 213,-1162 207,-1162"/>
<text text-anchor="middle" x="168" y="-1145.4" font-family="Times New Roman,serif" font-size="12.00"> A2 &#160;</text>
<text text-anchor="middle" x="168" y="-1132.4" font-family="Times New Roman,serif" font-size="12.00"> 2509 movimentos </text>
</a>
</g>
</g>
<!-- &#45;6243243875867890169&#45;&gt;&#45;210481333109200403 -->
<g id="edge1" class="edge">
<title>&#45;6243243875867890169&#45;&gt;&#45;210481333109200403</title>
<g id="a_edge1"><a xlink:title="A1 &#45;&gt; A2">
<path fill="none" stroke="#009600" stroke-width="1.62" d="M168,-1210.69C168,-1199.43 168,-1184.99 168,-1172.35"/>
<polygon fill="#009600" stroke="#009600" stroke-width="1.62" points="171.5,-1172.25 168,-1162.25 164.5,-1172.25 171.5,-1172.25"/>
</a>
</g>
<g id="a_edge1&#45;label"><a xlink:title="A1 &#45;&gt; A2">
<text text-anchor="middle" x="176.5" y="-1183.4" font-family="Times New Roman,serif" font-size="12.00"> 0s </text>
</a>
</g>
</g>
<!-- &#45;1372013103740134097 -->
<g id="node4" class="node">
<title>&#45;1372013103740134097</title>
<g id="a_node4"><a xlink:title="A10">
<path fill="#ffffff" stroke="black" stroke-width="2.76" d="M290,-183C290,-183 212,-183 212,-183 206,-183 200,-177 200,-171 200,-171 200,-155 200,-155 200,-149 206,-143 212,-143 212,-143 290,-143 290,-143 296,-143 302,-149 302,-155 302,-155 302,-171 302,-171 302,-177 296,-183 290,-183"/>
<text text-anchor="middle" x="251" y="-166.4" font-family="Times New Roman,serif" font-size="12.00"> A10 &#160;</text>
<text text-anchor="middle" x="251" y="-153.4" font-family="Times New Roman,serif" font-size="12.00"> 4064 movimentos </text>
</a>
</g>
</g>
<!-- &#45;8160673317329951620 -->
<g id="node8" class="node">
<title>&#45;8160673317329951620</title>
<g id="a_node8"><a xlink:title="A14">
<path fill="#ffffff" stroke="black" stroke-width="5" d="M341,-94C341,-94 263,-94 263,-94 257,-94 251,-88 251,-82 251,-82 251,-66 251,-66 251,-60 257,-54 263,-54 263,-54 341,-54 341,-54 347,-54 353,-60 353,-66 353,-66 353,-82 353,-82 353,-88 347,-94 341,-94"/>
<text text-anchor="middle" x="302" y="-77.4" font-family="Times New Roman,serif" font-size="12.00"> A14 &#160;</text>
<text text-anchor="middle" x="302" y="-64.4" font-family="Times New Roman,serif" font-size="12.00"> 7350 movimentos </text>
</a>
</g>
</g>
<!-- &#45;1372013103740134097&#45;&gt;&#45;8160673317329951620 -->
<g id="edge2" class="edge">
<title>&#45;1372013103740134097&#45;&gt;&#45;8160673317329951620</title>
<g id="a_edge2"><a xlink:title="A10 &#45;&gt; A14">
<path fill="none" stroke="#009600" d="M241.29,-142.98C237.72,-133.21 235.7,-121.41 241,-112 243.38,-107.77 246.46,-103.97 249.97,-100.56"/>
<polygon fill="#009600" stroke="#009600" points="252.26,-103.21 257.7,-94.12 247.78,-97.84 252.26,-103.21"/>
</a>
</g>
<g id="a_edge2&#45;label"><a xlink:title="A10 &#45;&gt; A14">
<text text-anchor="middle" x="249.5" y="-115.4" font-family="Times New Roman,serif" font-size="12.00"> 0s </text>
</a>
</g>
</g>
<!-- &#45;3492587082117239332 -->
<g id="node5" class="node">
<title>&#45;3492587082117239332</title>
<g id="a_node5"><a xlink:title="A11">
<path fill="#ffffff" stroke="black" d="M244,-984C244,-984 172,-984 172,-984 166,-984 160,-978 160,-972 160,-972 160,-956 160,-956 160,-950 166,-944 172,-944 172,-944 244,-944 244,-944 250,-944 256,-950 256,-956 256,-956 256,-972 256,-972 256,-978 250,-984 244,-984"/>
<text text-anchor="middle" x="208" y="-967.4" font-family="Times New Roman,serif" font-size="12.00"> A11 &#160;</text>
<text text-anchor="middle" x="208" y="-954.4" font-family="Times New Roman,serif" font-size="12.00"> 856 movimentos </text>
</a>
</g>
</g>
<!-- &#45;6233061419764571077 -->
<g id="node17" class="node">
<title>&#45;6233061419764571077</title>
<g id="a_node17"><a xlink:title="A5">
<path fill="#ffffff" stroke="black" stroke-width="3.61" d="M281,-895C281,-895 203,-895 203,-895 197,-895 191,-889 191,-883 191,-883 191,-867 191,-867 191,-861 197,-855 203,-855 203,-855 281,-855 281,-855 287,-855 293,-861 293,-867 293,-867 293,-883 293,-883 293,-889 287,-895 281,-895"/>
<text text-anchor="middle" x="242" y="-878.4" font-family="Times New Roman,serif" font-size="12.00"> A5 &#160;</text>
<text text-anchor="middle" x="242" y="-865.4" font-family="Times New Roman,serif" font-size="12.00"> 5308 movimentos </text>
</a>
</g>
</g>
<!-- &#45;3492587082117239332&#45;&gt;&#45;6233061419764571077 -->
<g id="edge3" class="edge">
<title>&#45;3492587082117239332&#45;&gt;&#45;6233061419764571077</title>
<g id="a_edge3"><a xlink:title="A11 &#45;&gt; A5">
<path fill="none" stroke="#009600" d="M215.55,-943.69C220.04,-932.2 225.82,-917.41 230.83,-904.59"/>
<polygon fill="#009600" stroke="#009600" points="234.1,-905.84 234.48,-895.25 227.58,-903.29 234.1,-905.84"/>
</a>
</g>
<g id="a_edge3&#45;label"><a xlink:title="A11 &#45;&gt; A5">
<text text-anchor="middle" x="236.5" y="-916.4" font-family="Times New Roman,serif" font-size="12.00"> 0s </text>
</a>
</g>
</g>
<!-- 3860639587732402187 -->
<g id="node6" class="node">
<title>3860639587732402187</title>
<g id="a_node6"><a xlink:title="A12">
<path fill="#ffffff" stroke="black" stroke-width="3.44" d="M341,-806C341,-806 263,-806 263,-806 257,-806 251,-800 251,-794 251,-794 251,-778 251,-778 251,-772 257,-766 263,-766 263,-766 341,-766 341,-766 347,-766 353,-772 353,-778 353,-778 353,-794 353,-794 353,-800 347,-806 341,-806"/>
<text text-anchor="middle" x="302" y="-789.4" font-family="Times New Roman,serif" font-size="12.00"> A12 &#160;</text>
<text text-anchor="middle" x="302" y="-776.4" font-family="Times New Roman,serif" font-size="12.00"> 5051 movimentos </text>
</a>
</g>
</g>
<!-- 2196862562947111385 -->
<g id="node7" class="node">
<title>2196862562947111385</title>
<g id="a_node7"><a xlink:title="A13">
<path fill="#ffffff" stroke="black" stroke-width="3.44" d="M295,-717C295,-717 217,-717 217,-717 211,-717 205,-711 205,-705 205,-705 205,-689 205,-689 205,-683 211,-677 217,-677 217,-677 295,-677 295,-677 301,-677 307,-683 307,-689 307,-689 307,-705 307,-705 307,-711 301,-717 295,-717"/>
<text text-anchor="middle" x="256" y="-700.4" font-family="Times New Roman,serif" font-size="12.00"> A13 &#160;</text>
<text text-anchor="middle" x="256" y="-687.4" font-family="Times New Roman,serif" font-size="12.00"> 5051 movimentos </text>
</a>
</g>
</g>
<!-- 3860639587732402187&#45;&gt;2196862562947111385 -->
<g id="edge4" class="edge">
<title>3860639587732402187&#45;&gt;2196862562947111385</title>
<g id="a_edge4"><a xlink:title="A12 &#45;&gt; A13">
<path fill="none" stroke="#009600" stroke-width="5" d="M291.79,-765.69C285.66,-754.09 277.74,-739.12 270.92,-726.21"/>
<polygon fill="#009600" stroke="#009600" stroke-width="5" points="274.72,-724.05 266.18,-717.25 266.99,-728.14 274.72,-724.05"/>
</a>
</g>
<g id="a_edge4&#45;label"><a xlink:title="A12 &#45;&gt; A13">
<text text-anchor="middle" x="290.5" y="-738.4" font-family="Times New Roman,serif" font-size="12.00"> 0s </text>
</a>
</g>
</g>
<!-- &#45;2357774367460651714 -->
<g id="node11" class="node">
<title>&#45;2357774367460651714</title>
<g id="a_node11"><a xlink:title="A17">
<path fill="#ffffff" stroke="black" d="M290,-628C290,-628 212,-628 212,-628 206,-628 200,-622 200,-616 200,-616 200,-600 200,-600 200,-594 206,-588 212,-588 212,-588 290,-588 290,-588 296,-588 302,-594 302,-600 302,-600 302,-616 302,-616 302,-622 296,-628 290,-628"/>
<text text-anchor="middle" x="251" y="-611.4" font-family="Times New Roman,serif" font-size="12.00"> A17 &#160;</text>
<text text-anchor="middle" x="251" y="-598.4" font-family="Times New Roman,serif" font-size="12.00"> 1463 movimentos </text>
</a>
</g>
</g>
<!-- 2196862562947111385&#45;&gt;&#45;2357774367460651714 -->
<g id="edge5" class="edge">
<title>2196862562947111385&#45;&gt;&#45;2357774367460651714</title>
<g id="a_edge5"><a xlink:title="A13 &#45;&gt; A17">
<path fill="none" stroke="#964700" d="M254.89,-676.69C254.24,-665.43 253.41,-650.99 252.69,-638.35"/>
<polygon fill="#964700" stroke="#964700" points="256.17,-638.04 252.11,-628.25 249.19,-638.44 256.17,-638.04"/>
</a>
</g>
<g id="a_edge5&#45;label"><a xlink:title="A13 &#45;&gt; A17">
<text text-anchor="middle" x="267.5" y="-649.4" font-family="Times New Roman,serif" font-size="12.00"> 20D </text>
</a>
</g>
</g>
<!-- 7759015927460220005 -->
<g id="node15" class="node">
<title>7759015927460220005</title>
<g id="a_node15"><a xlink:title="A3">
<path fill="#ffffff" stroke="black" stroke-width="3.61" d="M207,-1073C207,-1073 129,-1073 129,-1073 123,-1073 117,-1067 117,-1061 117,-1061 117,-1045 117,-1045 117,-1039 123,-1033 129,-1033 129,-1033 207,-1033 207,-1033 213,-1033 219,-1039 219,-1045 219,-1045 219,-1061 219,-1061 219,-1067 213,-1073 207,-1073"/>
<text text-anchor="middle" x="168" y="-1056.4" font-family="Times New Roman,serif" font-size="12.00"> A3 &#160;</text>
<text text-anchor="middle" x="168" y="-1043.4" font-family="Times New Roman,serif" font-size="12.00"> 5310 movimentos </text>
</a>
</g>
</g>
<!-- 2196862562947111385&#45;&gt;7759015927460220005 -->
<g id="edge6" class="edge">
<title>2196862562947111385&#45;&gt;7759015927460220005</title>
<g id="a_edge6"><a xlink:title="A13 &#45;&gt; A3">
<path fill="none" stroke="#962d00" stroke-width="2.29" d="M204.72,-715.94C175.64,-729.73 145,-752.07 145,-785 145,-965 145,-965 145,-965 145,-984.79 150.63,-1006.31 156.33,-1022.99"/>
<polygon fill="#962d00" stroke="#962d00" stroke-width="2.29" points="153.14,-1024.47 159.83,-1032.69 159.72,-1022.1 153.14,-1024.47"/>
</a>
</g>
<g id="a_edge6&#45;label"><a xlink:title="A13 &#45;&gt; A3">
<text text-anchor="middle" x="156.5" y="-871.9" font-family="Times New Roman,serif" font-size="12.00"> 1M </text>
</a>
</g>
</g>
<!-- &#45;8160673317329951620&#45;&gt;&#45;1372013103740134097 -->
<g id="edge7" class="edge">
<title>&#45;8160673317329951620&#45;&gt;&#45;1372013103740134097</title>
<g id="a_edge7"><a xlink:title="A14 &#45;&gt; A10">
<path fill="none" stroke="#009600" stroke-width="1.96" d="M290.71,-94.25C283.92,-105.85 275.15,-120.81 267.57,-133.73"/>
<polygon fill="#009600" stroke="#009600" stroke-width="1.96" points="264.36,-132.29 262.32,-142.69 270.4,-135.83 264.36,-132.29"/>
</a>
</g>
<g id="a_edge7&#45;label"><a xlink:title="A14 &#45;&gt; A10">
<text text-anchor="middle" x="288.5" y="-115.4" font-family="Times New Roman,serif" font-size="12.00"> 0s </text>
</a>
</g>
</g>
<!-- &#45;8160673317329951620&#45;&gt;3860639587732402187 -->
<g id="edge8" class="edge">
<title>&#45;8160673317329951620&#45;&gt;3860639587732402187</title>
<g id="a_edge8"><a xlink:title="A14 &#45;&gt; A12">
<path fill="none" stroke="#009600" stroke-width="1.39" d="M325.76,-94.14C342.89,-110.22 363,-134.88 363,-162 363,-698 363,-698 363,-698 363,-721.3 348.15,-742.79 333.1,-758.59"/>
<polygon fill="#009600" stroke="#009600" stroke-width="1.39" points="330.4,-756.34 325.76,-765.86 335.32,-761.31 330.4,-756.34"/>
</a>
</g>
<g id="a_edge8&#45;label"><a xlink:title="A14 &#45;&gt; A12">
<text text-anchor="middle" x="371.5" y="-426.9" font-family="Times New Roman,serif" font-size="12.00"> 0s </text>
</a>
</g>
</g>
<!-- &#45;8160673317329951620&#45;&gt;&#45;8160673317329951620 -->
<g id="edge9" class="edge">
<title>&#45;8160673317329951620&#45;&gt;&#45;8160673317329951620</title>
<g id="a_edge9"><a xlink:title="A14 &#45;&gt; A14">
<path fill="none" stroke="#009600" d="M353.15,-81.94C363.55,-81.07 371,-78.43 371,-74 371,-71.23 368.09,-69.16 363.37,-67.79"/>
<polygon fill="#009600" stroke="#009600" points="363.6,-64.28 353.15,-66.06 362.43,-71.18 363.6,-64.28"/>
</a>
</g>
<g id="a_edge9&#45;label"><a xlink:title="A14 &#45;&gt; A14">
<text text-anchor="middle" x="379.5" y="-70.9" font-family="Times New Roman,serif" font-size="12.00"> 0s </text>
</a>
</g>
</g>
<!-- &#45;8481297160812715326 -->
<g id="node9" class="node">
<title>&#45;8481297160812715326</title>
<g id="a_node9"><a xlink:title="A15">
<path fill="#ffffff" stroke="black" d="M298,-450C298,-450 226,-450 226,-450 220,-450 214,-444 214,-438 214,-438 214,-422 214,-422 214,-416 220,-410 226,-410 226,-410 298,-410 298,-410 304,-410 310,-416 310,-422 310,-422 310,-438 310,-438 310,-444 304,-450 298,-450"/>
<text text-anchor="middle" x="262" y="-433.4" font-family="Times New Roman,serif" font-size="12.00"> A15 &#160;</text>
<text text-anchor="middle" x="262" y="-420.4" font-family="Times New Roman,serif" font-size="12.00"> 950 movimentos </text>
</a>
</g>
</g>
<!-- &#45;5000034493256299319 -->
<g id="node10" class="node">
<title>&#45;5000034493256299319</title>
<g id="a_node10"><a xlink:title="A16">
<path fill="#ffffff" stroke="black" d="M298,-361C298,-361 226,-361 226,-361 220,-361 214,-355 214,-349 214,-349 214,-333 214,-333 214,-327 220,-321 226,-321 226,-321 298,-321 298,-321 304,-321 310,-327 310,-333 310,-333 310,-349 310,-349 310,-355 304,-361 298,-361"/>
<text text-anchor="middle" x="262" y="-344.4" font-family="Times New Roman,serif" font-size="12.00"> A16 &#160;</text>
<text text-anchor="middle" x="262" y="-331.4" font-family="Times New Roman,serif" font-size="12.00"> 893 movimentos </text>
</a>
</g>
</g>
<!-- &#45;8481297160812715326&#45;&gt;&#45;5000034493256299319 -->
<g id="edge10" class="edge">
<title>&#45;8481297160812715326&#45;&gt;&#45;5000034493256299319</title>
<g id="a_edge10"><a xlink:title="A15 &#45;&gt; A16">
<path fill="none" stroke="#009600" d="M262,-409.69C262,-398.43 262,-383.99 262,-371.35"/>
<polygon fill="#009600" stroke="#009600" points="265.5,-371.25 262,-361.25 258.5,-371.25 265.5,-371.25"/>
</a>
</g>
<g id="a_edge10&#45;label"><a xlink:title="A15 &#45;&gt; A16">
<text text-anchor="middle" x="270.5" y="-382.4" font-family="Times New Roman,serif" font-size="12.00"> 0s </text>
</a>
</g>
</g>
<!-- &#45;1206024415001834154 -->
<g id="node21" class="node">
<title>&#45;1206024415001834154</title>
<g id="a_node21"><a xlink:title="A9">
<path fill="#ffffff" stroke="black" stroke-width="4.07" d="M298,-272C298,-272 220,-272 220,-272 214,-272 208,-266 208,-260 208,-260 208,-244 208,-244 208,-238 214,-232 220,-232 220,-232 298,-232 298,-232 304,-232 310,-238 310,-244 310,-244 310,-260 310,-260 310,-266 304,-272 298,-272"/>
<text text-anchor="middle" x="259" y="-255.4" font-family="Times New Roman,serif" font-size="12.00"> A9 &#160;</text>
<text text-anchor="middle" x="259" y="-242.4" font-family="Times New Roman,serif" font-size="12.00"> 5990 movimentos </text>
</a>
</g>
</g>
<!-- &#45;5000034493256299319&#45;&gt;&#45;1206024415001834154 -->
<g id="edge11" class="edge">
<title>&#45;5000034493256299319&#45;&gt;&#45;1206024415001834154</title>
<g id="a_edge11"><a xlink:title="A16 &#45;&gt; A9">
<path fill="none" stroke="#009600" d="M261.33,-320.69C260.95,-309.43 260.45,-294.99 260.01,-282.35"/>
<polygon fill="#009600" stroke="#009600" points="263.51,-282.13 259.66,-272.25 256.51,-282.37 263.51,-282.13"/>
</a>
</g>
<g id="a_edge11&#45;label"><a xlink:title="A16 &#45;&gt; A9">
<text text-anchor="middle" x="269.5" y="-293.4" font-family="Times New Roman,serif" font-size="12.00"> 0s </text>
</a>
</g>
</g>
<!-- 6955156536355772979 -->
<g id="node18" class="node">
<title>6955156536355772979</title>
<g id="a_node18"><a xlink:title="A6">
<path fill="#ffffff" stroke="black" stroke-width="4.03" d="M215,-539C215,-539 137,-539 137,-539 131,-539 125,-533 125,-527 125,-527 125,-511 125,-511 125,-505 131,-499 137,-499 137,-499 215,-499 215,-499 221,-499 227,-505 227,-511 227,-511 227,-527 227,-527 227,-533 221,-539 215,-539"/>
<text text-anchor="middle" x="176" y="-522.4" font-family="Times New Roman,serif" font-size="12.00"> A6 &#160;</text>
<text text-anchor="middle" x="176" y="-509.4" font-family="Times New Roman,serif" font-size="12.00"> 5926 movimentos </text>
</a>
</g>
</g>
<!-- &#45;2357774367460651714&#45;&gt;6955156536355772979 -->
<g id="edge12" class="edge">
<title>&#45;2357774367460651714&#45;&gt;6955156536355772979</title>
<g id="a_edge12"><a xlink:title="A17 &#45;&gt; A6">
<path fill="none" stroke="#009600" d="M234.36,-587.69C224.06,-575.75 210.7,-560.25 199.35,-547.09"/>
<polygon fill="#009600" stroke="#009600" points="201.78,-544.54 192.6,-539.25 196.48,-549.11 201.78,-544.54"/>
</a>
</g>
<g id="a_edge12&#45;label"><a xlink:title="A17 &#45;&gt; A6">
<text text-anchor="middle" x="226.5" y="-560.4" font-family="Times New Roman,serif" font-size="12.00"> 0s </text>
</a>
</g>
</g>
<!-- &#45;210481333109200403&#45;&gt;7759015927460220005 -->
<g id="edge13" class="edge">
<title>&#45;210481333109200403&#45;&gt;7759015927460220005</title>
<g id="a_edge13"><a xlink:title="A2 &#45;&gt; A3">
<path fill="none" stroke="#960000" d="M168,-1121.69C168,-1110.43 168,-1095.99 168,-1083.35"/>
<polygon fill="#960000" stroke="#960000" points="171.5,-1083.25 168,-1073.25 164.5,-1083.25 171.5,-1083.25"/>
</a>
</g>
<g id="a_edge13&#45;label"><a xlink:title="A2 &#45;&gt; A3">
<text text-anchor="middle" x="179.5" y="-1094.4" font-family="Times New Roman,serif" font-size="12.00"> 2M </text>
</a>
</g>
</g>
<!-- &#45;1972487890050963304 -->
<g id="node13" class="node">
<title>&#45;1972487890050963304</title>
<g id="a_node13"><a xlink:title="A22">
<path fill="#ffffff" stroke="black" stroke-width="1.03" d="M90,-450C90,-450 12,-450 12,-450 6,-450 0,-444 0,-438 0,-438 0,-422 0,-422 0,-416 6,-410 12,-410 12,-410 90,-410 90,-410 96,-410 102,-416 102,-422 102,-422 102,-438 102,-438 102,-444 96,-450 90,-450"/>
<text text-anchor="middle" x="51" y="-433.4" font-family="Times New Roman,serif" font-size="12.00"> A22 &#160;</text>
<text text-anchor="middle" x="51" y="-420.4" font-family="Times New Roman,serif" font-size="12.00"> 1521 movimentos </text>
</a>
</g>
</g>
<!-- &#45;6002558222360305085 -->
<g id="node14" class="node">
<title>&#45;6002558222360305085</title>
<g id="a_node14"><a xlink:title="A23">
<path fill="#ffffff" stroke="black" d="M90,-361C90,-361 12,-361 12,-361 6,-361 0,-355 0,-349 0,-349 0,-333 0,-333 0,-327 6,-321 12,-321 12,-321 90,-321 90,-321 96,-321 102,-327 102,-333 102,-333 102,-349 102,-349 102,-355 96,-361 90,-361"/>
<text text-anchor="middle" x="51" y="-344.4" font-family="Times New Roman,serif" font-size="12.00"> A23 &#160;</text>
<text text-anchor="middle" x="51" y="-331.4" font-family="Times New Roman,serif" font-size="12.00"> 1391 movimentos </text>
</a>
</g>
</g>
<!-- &#45;1972487890050963304&#45;&gt;&#45;6002558222360305085 -->
<g id="edge14" class="edge">
<title>&#45;1972487890050963304&#45;&gt;&#45;6002558222360305085</title>
<g id="a_edge14"><a xlink:title="A22 &#45;&gt; A23">
<path fill="none" stroke="#009600" stroke-width="1.3" d="M51,-409.69C51,-398.43 51,-383.99 51,-371.35"/>
<polygon fill="#009600" stroke="#009600" stroke-width="1.3" points="54.5,-371.25 51,-361.25 47.5,-371.25 54.5,-371.25"/>
</a>
</g>
<g id="a_edge14&#45;label"><a xlink:title="A22 &#45;&gt; A23">
<text text-anchor="middle" x="59.5" y="-382.4" font-family="Times New Roman,serif" font-size="12.00"> 0s </text>
</a>
</g>
</g>
<!-- &#45;6002558222360305085&#45;&gt;&#45;1206024415001834154 -->
<g id="edge15" class="edge">
<title>&#45;6002558222360305085&#45;&gt;&#45;1206024415001834154</title>
<g id="a_edge15"><a xlink:title="A23 &#45;&gt; A9">
<path fill="none" stroke="#009600" stroke-width="1.19" d="M96.65,-320.91C128.21,-307.71 170.38,-290.07 203.83,-276.08"/>
<polygon fill="#009600" stroke="#009600" stroke-width="1.19" points="205.59,-279.14 213.46,-272.05 202.88,-272.68 205.59,-279.14"/>
</a>
</g>
<g id="a_edge15&#45;label"><a xlink:title="A23 &#45;&gt; A9">
<text text-anchor="middle" x="176.5" y="-293.4" font-family="Times New Roman,serif" font-size="12.00"> 0s </text>
</a>
</g>
</g>
<!-- &#45;720698082535731211 -->
<g id="node16" class="node">
<title>&#45;720698082535731211</title>
<g id="a_node16"><a xlink:title="A4">
<path fill="#ffffff" stroke="black" stroke-width="3.23" d="M351,-984C351,-984 273,-984 273,-984 267,-984 261,-978 261,-972 261,-972 261,-956 261,-956 261,-950 267,-944 273,-944 273,-944 351,-944 351,-944 357,-944 363,-950 363,-956 363,-956 363,-972 363,-972 363,-978 357,-984 351,-984"/>
<text text-anchor="middle" x="312" y="-967.4" font-family="Times New Roman,serif" font-size="12.00"> A4 &#160;</text>
<text text-anchor="middle" x="312" y="-954.4" font-family="Times New Roman,serif" font-size="12.00"> 4749 movimentos </text>
</a>
</g>
</g>
<!-- 7759015927460220005&#45;&gt;&#45;720698082535731211 -->
<g id="edge16" class="edge">
<title>7759015927460220005&#45;&gt;&#45;720698082535731211</title>
<g id="a_edge16"><a xlink:title="A3 &#45;&gt; A4">
<path fill="none" stroke="#009600" stroke-width="4.64" d="M199.6,-1032.91C220.8,-1020.1 248.9,-1003.12 271.7,-989.35"/>
<polygon fill="#009600" stroke="#009600" stroke-width="4.64" points="274.01,-992.7 280.47,-984.05 269.81,-985.74 274.01,-992.7"/>
</a>
</g>
<g id="a_edge16&#45;label"><a xlink:title="A3 &#45;&gt; A4">
<text text-anchor="middle" x="257.5" y="-1005.4" font-family="Times New Roman,serif" font-size="12.00"> 0s </text>
</a>
</g>
</g>
<!-- &#45;720698082535731211&#45;&gt;&#45;6233061419764571077 -->
<g id="edge17" class="edge">
<title>&#45;720698082535731211&#45;&gt;&#45;6233061419764571077</title>
<g id="a_edge17"><a xlink:title="A4 &#45;&gt; A5">
<path fill="none" stroke="#009600" stroke-width="4.84" d="M296.46,-943.69C286.86,-931.75 274.38,-916.25 263.8,-903.09"/>
<polygon fill="#009600" stroke="#009600" stroke-width="4.84" points="267.06,-900.39 257.49,-895.25 260.46,-905.7 267.06,-900.39"/>
</a>
</g>
<g id="a_edge17&#45;label"><a xlink:title="A4 &#45;&gt; A5">
<text text-anchor="middle" x="290.5" y="-916.4" font-family="Times New Roman,serif" font-size="12.00"> 0s </text>
</a>
</g>
</g>
<!-- &#45;6233061419764571077&#45;&gt;3860639587732402187 -->
<g id="edge18" class="edge">
<title>&#45;6233061419764571077&#45;&gt;3860639587732402187</title>
<g id="a_edge18"><a xlink:title="A5 &#45;&gt; A12">
<path fill="none" stroke="#009600" stroke-width="1.12" d="M255.32,-854.69C263.39,-842.98 273.84,-827.83 282.8,-814.84"/>
<polygon fill="#009600" stroke="#009600" stroke-width="1.12" points="285.93,-816.47 288.72,-806.25 280.16,-812.5 285.93,-816.47"/>
</a>
</g>
<g id="a_edge18&#45;label"><a xlink:title="A5 &#45;&gt; A12">
<text text-anchor="middle" x="284.5" y="-827.4" font-family="Times New Roman,serif" font-size="12.00"> 0s </text>
</a>
</g>
</g>
<!-- &#45;6233061419764571077&#45;&gt;6955156536355772979 -->
<g id="edge19" class="edge">
<title>&#45;6233061419764571077&#45;&gt;6955156536355772979</title>
<g id="a_edge19"><a xlink:title="A5 &#45;&gt; A6">
<path fill="none" stroke="#009600" stroke-width="3.46" d="M219.02,-854.7C202.45,-838.53 183,-813.83 183,-787 183,-787 183,-787 183,-607 183,-587.86 181.3,-566.42 179.57,-549.62"/>
<polygon fill="#009600" stroke="#009600" stroke-width="3.46" points="183.01,-548.88 178.45,-539.31 176.05,-549.63 183.01,-548.88"/>
</a>
</g>
<g id="a_edge19&#45;label"><a xlink:title="A5 &#45;&gt; A6">
<text text-anchor="middle" x="191.5" y="-693.9" font-family="Times New Roman,serif" font-size="12.00"> 0s </text>
</a>
</g>
</g>
<!-- 6955156536355772979&#45;&gt;&#45;1972487890050963304 -->
<g id="edge20" class="edge">
<title>6955156536355772979&#45;&gt;&#45;1972487890050963304</title>
<g id="a_edge20"><a xlink:title="A6 &#45;&gt; A22">
<path fill="none" stroke="#009600" stroke-width="1.37" d="M148.57,-498.91C130.41,-486.27 106.42,-469.57 86.77,-455.9"/>
<polygon fill="#009600" stroke="#009600" stroke-width="1.37" points="88.57,-452.89 78.37,-450.05 84.58,-458.63 88.57,-452.89"/>
</a>
</g>
<g id="a_edge20&#45;label"><a xlink:title="A6 &#45;&gt; A22">
<text text-anchor="middle" x="129.5" y="-471.4" font-family="Times New Roman,serif" font-size="12.00"> 0s </text>
</a>
</g>
</g>
<!-- 1985964353488742915 -->
<g id="node19" class="node">
<title>1985964353488742915</title>
<g id="a_node19"><a xlink:title="A7">
<path fill="#ffffff" stroke="black" stroke-width="2.37" d="M197,-450C197,-450 119,-450 119,-450 113,-450 107,-444 107,-438 107,-438 107,-422 107,-422 107,-416 113,-410 119,-410 119,-410 197,-410 197,-410 203,-410 209,-416 209,-422 209,-422 209,-438 209,-438 209,-444 203,-450 197,-450"/>
<text text-anchor="middle" x="158" y="-433.4" font-family="Times New Roman,serif" font-size="12.00"> A7 &#160;</text>
<text text-anchor="middle" x="158" y="-420.4" font-family="Times New Roman,serif" font-size="12.00"> 3489 movimentos </text>
</a>
</g>
</g>
<!-- 6955156536355772979&#45;&gt;1985964353488742915 -->
<g id="edge21" class="edge">
<title>6955156536355772979&#45;&gt;1985964353488742915</title>
<g id="a_edge21"><a xlink:title="A6 &#45;&gt; A7">
<path fill="none" stroke="#009600" stroke-width="3.55" d="M172.01,-498.69C169.67,-487.43 166.69,-472.99 164.07,-460.35"/>
<polygon fill="#009600" stroke="#009600" stroke-width="3.55" points="167.44,-459.34 161.98,-450.25 160.58,-460.76 167.44,-459.34"/>
</a>
</g>
<g id="a_edge21&#45;label"><a xlink:title="A6 &#45;&gt; A7">
<text text-anchor="middle" x="177.5" y="-471.4" font-family="Times New Roman,serif" font-size="12.00"> 0s </text>
</a>
</g>
</g>
<!-- 6469312236351906662 -->
<g id="node20" class="node">
<title>6469312236351906662</title>
<g id="a_node20"><a xlink:title="A8">
<path fill="#ffffff" stroke="black" stroke-width="2.32" d="M197,-361C197,-361 119,-361 119,-361 113,-361 107,-355 107,-349 107,-349 107,-333 107,-333 107,-327 113,-321 119,-321 119,-321 197,-321 197,-321 203,-321 209,-327 209,-333 209,-333 209,-349 209,-349 209,-355 203,-361 197,-361"/>
<text text-anchor="middle" x="158" y="-344.4" font-family="Times New Roman,serif" font-size="12.00"> A8 &#160;</text>
<text text-anchor="middle" x="158" y="-331.4" font-family="Times New Roman,serif" font-size="12.00"> 3416 movimentos </text>
</a>
</g>
</g>
<!-- 1985964353488742915&#45;&gt;6469312236351906662 -->
<g id="edge22" class="edge">
<title>1985964353488742915&#45;&gt;6469312236351906662</title>
<g id="a_edge22"><a xlink:title="A7 &#45;&gt; A8">
<path fill="none" stroke="#009600" stroke-width="3.59" d="M158,-409.69C158,-398.43 158,-383.99 158,-371.35"/>
<polygon fill="#009600" stroke="#009600" stroke-width="3.59" points="161.5,-371.25 158,-361.25 154.5,-371.25 161.5,-371.25"/>
</a>
</g>
<g id="a_edge22&#45;label"><a xlink:title="A7 &#45;&gt; A8">
<text text-anchor="middle" x="166.5" y="-382.4" font-family="Times New Roman,serif" font-size="12.00"> 0s </text>
</a>
</g>
</g>
<!-- 6469312236351906662&#45;&gt;&#45;1206024415001834154 -->
<g id="edge23" class="edge">
<title>6469312236351906662&#45;&gt;&#45;1206024415001834154</title>
<g id="a_edge23"><a xlink:title="A8 &#45;&gt; A9">
<path fill="none" stroke="#009600" stroke-width="3.18" d="M180.42,-320.69C194.67,-308.41 213.3,-292.37 228.84,-278.98"/>
<polygon fill="#009600" stroke="#009600" stroke-width="3.18" points="231.36,-281.43 236.65,-272.25 226.79,-276.13 231.36,-281.43"/>
</a>
</g>
<g id="a_edge23&#45;label"><a xlink:title="A8 &#45;&gt; A9">
<text text-anchor="middle" x="223.5" y="-293.4" font-family="Times New Roman,serif" font-size="12.00"> 0s </text>
</a>
</g>
</g>
<!-- &#45;1206024415001834154&#45;&gt;&#45;1372013103740134097 -->
<g id="edge24" class="edge">
<title>&#45;1206024415001834154&#45;&gt;&#45;1372013103740134097</title>
<g id="a_edge24"><a xlink:title="A9 &#45;&gt; A10">
<path fill="none" stroke="#009600" d="M257.22,-231.69C256.19,-220.43 254.86,-205.99 253.7,-193.35"/>
<polygon fill="#009600" stroke="#009600" points="257.17,-192.89 252.77,-183.25 250.2,-193.53 257.17,-192.89"/>
</a>
</g>
<g id="a_edge24&#45;label"><a xlink:title="A9 &#45;&gt; A10">
<text text-anchor="middle" x="264.5" y="-204.4" font-family="Times New Roman,serif" font-size="12.00"> 0s </text>
</a>
</g>
</g>
<!-- &#45;1206024415001834154&#45;&gt;3860639587732402187 -->
<g id="edge25" class="edge">
<title>&#45;1206024415001834154&#45;&gt;3860639587732402187</title>
<g id="a_edge25"><a xlink:title="A9 &#45;&gt; A12">
<path fill="none" stroke="#968800" stroke-width="1.69" d="M285.08,-272.05C303.53,-287.92 325,-312.32 325,-340 325,-698 325,-698 325,-698 325,-717.79 319.37,-739.31 313.67,-755.99"/>
<polygon fill="#968800" stroke="#968800" stroke-width="1.69" points="310.28,-755.1 310.17,-765.69 316.86,-757.47 310.28,-755.1"/>
</a>
</g>
<g id="a_edge25&#45;label"><a xlink:title="A9 &#45;&gt; A12">
<text text-anchor="middle" x="335.5" y="-515.9" font-family="Times New Roman,serif" font-size="12.00"> 2D </text>
</a>
</g>
</g>
<!-- &#45;1206024415001834154&#45;&gt;&#45;8160673317329951620 -->
<g id="edge26" class="edge">
<title>&#45;1206024415001834154&#45;&gt;&#45;8160673317329951620</title>
<g id="a_edge26"><a xlink:title="A9 &#45;&gt; A14">
<path fill="none" stroke="#968f00" stroke-width="1.44" d="M275.59,-231.99C285.68,-219.12 297.62,-201.21 303,-183 310.62,-157.19 309.38,-126.38 306.82,-104.28"/>
<polygon fill="#968f00" stroke="#968f00" stroke-width="1.44" points="310.27,-103.65 305.49,-94.19 303.33,-104.57 310.27,-103.65"/>
</a>
</g>
<g id="a_edge26&#45;label"><a xlink:title="A9 &#45;&gt; A14">
<text text-anchor="middle" x="318.5" y="-159.9" font-family="Times New Roman,serif" font-size="12.00"> 1D </text>
</a>
</g>
</g>
</g>
</svg>
